# xmcd CD database file
#
# Track frame offsets:
#	150
#	21738
#	38684
#	55026
#	70375
#	89520
#	107137
#	123285
#	139414
#	157269
#	176843
#	190711
#	206571
#	223517
#	243836
#	260412
#	273303
#	288369
#
# Disc length: 4095 seconds
#
# Revision: 2
# Processed by: cddbd v1.5.2PL0 Copyright (c) Steve Scherf et al.
# Submitted via: CDex 1.51
#
DISCID=160ffd12
DTITLE=Various Artist - MRH134
DYEAR=1900
DGENRE=Blues
TTITLE0=Sam Smith - Writing's On The Wall
TTITLE1=Ellie Goulding - On My Mind
TTITLE2=Naughty Boy Ft Beyonce and Arrow Benjamin - Runnin' (lose it all)
TTITLE3=The Vamps - Wake Up
TTITLE4=Rudimental Ft Ed Sheeran - Lay It All On Me
TTITLE5=MNEK and Zara Larsson - Never Forget You
TTITLE6=Jamie Lawson - Wasn't Expecting That
TTITLE7=Little Mix - Love Me Like You
TTITLE8=Meghan Trainor Ft John Legend - Like I'm Gonna Lose You
TTITLE9=Kygo Ft Ella Henderson - Here For You
TTITLE10=Nick Jonas - Levels
TTITLE11=KDA Ft Tinie Tempah and Katy B - Turn The Music Louder (rumble)
TTITLE12=Jason Derulo - Cheyenne
TTITLE13=Sia - Alive
TTITLE14=Nick Brewer Ft Bibi Bourelly - Talk To Me
TTITLE15=Lost Frequencies Ft Janieck Devy - Reality
TTITLE16=Tori kelly - Shoud've Been Us
TTITLE17=WSTRN - In2
EXTD=
EXTT0=
EXTT1=
EXTT2=
EXTT3=
EXTT4=
EXTT5=
EXTT6=
EXTT7=
EXTT8=
EXTT9=
EXTT10=
EXTT11=
EXTT12=
EXTT13=
EXTT14=
EXTT15=
EXTT16=
EXTT17=
PLAYORDER=
